<svg xmlns="http://www.w3.org/2000/svg" viewBox="0 0 2991.0038 978.9403"><g><path d="m1.4391,978.9341c349.9909-29.0151,699.9766-100.5356,1052.4486-71.2844,88.9855,7.3848,175.9433,24.7229,263.9031,39.1537,79.6605,13.0691,161.7549,21.6525,241.63,5.4182,62.2402-12.6501,124.969-44.6861,133.4081-114.2638,8.6612-71.4094-33.7646-141.8382-65.9392-202.2039-39.694-74.4738-82.6915-147.1869-128.8226-217.8543-22.1866-33.9873-46.5509-66.6858-67.9164-101.1842-21.02-33.9404-36.776-72.533-28.0155-113.0069,14.3748-66.4119,80.5925-109.5293,138.5998-135.1411,79.0008-34.881,165.2839-55.5205,251.2043-62.8449,40.1627-3.4237,84.3999-6.6141,121.03,13.4639,27.6982,15.1821,46.6201,41.5344,57.1391,70.8653,22.307,62.2005,10.7362,128.3047-9.7874,189.1034-23.6937,70.1898-59.1468,143.8177-49.545,219.9454,3.7669,29.866,18.3191,52.4176,47.3873,62.2903,33.5395,11.3913,73.0188,11.4316,107.9898,10.2214,154.8611-5.3591,298.2996-81.0748,424.5545-165.1541,128.496-85.5718,249.1967-185.1667,390.6531-249.4274,35.1761-15.9798,71.3943-29.4003,108.5853-39.8747,1.8555-.5226,1.0671-3.418-.7975-2.8928-303.5623,85.495-507.6596,366.5149-816.746,439.6874-39.8383,9.4312-80.6878,14.8717-121.6587,14.9434-34.6444.0606-81.1597,1.0568-110.8187-19.6671-37.0882-25.915-29.6611-87.0416-22.3144-125.3956,7.1796-37.4822,20.506-73.4283,33.3947-109.2305,22.0618-61.2835,41.5697-122.5245,31.2518-188.3723-8.1191-51.8154-35.9732-101.4282-88.2764-118.4472-35.9684-11.7038-76.0159-7.695-112.9684-4.0527-40.1727,3.9596-80.0582,10.9207-119.2044,20.7708-68.5903,17.2589-140.9405,41.1987-197.3449,85.3311-45.3208,35.4603-78.3055,87.4158-64.517,146.7476,8.4192,36.2279,30.7801,67.3967,51.5703,97.482,23.9903,34.7162,47.2908,69.8979,69.7636,105.6164,45.4366,72.2175,87.6925,146.4653,126.438,222.4849,32.7299,64.2169,71.6722,157.3491,12.8005,219.0273-25.2411,26.4444-61.4496,39.3592-96.3735,46.9783-43.7366,9.5417-88.7557,11.434-133.3528,8.9967-87.1892-4.7651-172.4126-25.3911-258.4815-38.6104-347.3785-53.3537-697.5414,8.7978-1043.2133,45.2686-42.5097,4.4851-85.0584,8.5807-127.6582,12.1124-1.9103.1584-1.9272,3.1598,0,3h0Z" style="stroke-width:0px; fill: #dedddc;"/></g></svg>