<svg xmlns="http://www.w3.org/2000/svg" viewBox="0 0 1783.7653 1101.013"><g><path d="m1253.5114,4.0245c-129.0246-11.9963-260.1447,2.95-383.3072,43.1857-61.097,19.9597-120.196,46.0963-175.9502,78.0864-44.8634,25.7413-94.8302,60.1488-111.0053,112.0971-15.7444,50.5648,11.7293,95.8065,44.6913,132.0885,18.3822,20.2338,38.4599,38.8728,56.4886,59.4341,16.7096,19.0569,33.2604,46.5062,27.7069,73.0475-7.9462,37.9769-55.8138,28.5367-83.4515,24.1664-34.7646-5.4973-68.9433-14.0659-102.9889-22.8756-64.1607-16.6023-128.853-34.1201-195.6348-34.0828-59.9664.0335-118.5853,15.4922-165.9563,53.3566-47.4291,37.9109-81.3778,91.1349-107.7171,145.15-14.3279,29.3828-26.331,59.9055-35.847,91.1796-9.4469,31.0471-18.1225,63.8006-20.2436,96.3009-1.8582,28.4718,4.8979,55.4757,23.867,77.2368,17.5382,20.1195,41.9635,33.5198,67.6017,40.2166,32.8977,8.593,67.4108,7.2393,100.9342,3.8404,34.7711-3.5254,69.3354-8.9537,103.6978-15.2834,70.9326-13.0662,141.05-30.1439,211.9135-43.5586,129.9734-24.6044,270.1073-36.7939,395.7857,13.5856,62.0431,24.8706,114.9236,66.2709,172.2518,99.7522,56.444,32.9649,117.7538,53.2598,182.3897,62.586,138.2851,19.9528,276.9065-5.6915,415.1908-11.4605,36.1271-1.5072,72.3004-1.5612,108.3939.7665,1.9277.1243,1.9202-2.8762,0-3-141.3207-9.1138-281.3684,20.0103-422.5735,18.1591-65.6994-.8613-131.9317-8.3194-194.4519-29.3224-62.3844-20.9573-115.4955-58.1155-170.6808-92.8535-54.2364-34.1406-110.9282-59.8551-174.1372-72.0514-62.0151-11.9659-125.7725-12.6037-188.5315-7.0734-138.8267,12.2334-272.4907,55.4401-410.4455,73.398-63.3252,8.2432-139.0529,15.3495-188.9539-33.2034-23.967-23.3196-31.8922-53.8494-28.8553-86.5906,3.1307-33.7526,12.2642-67.6307,22.6085-99.8175,19.5278-60.7618,48.2074-120.2478,87.1197-171.0566,38.6029-50.4049,89.3179-87.9861,152.2375-101.0333,134.8125-27.9552,261.4121,43.095,393.4131,54.6398,22.0448,1.928,47.3464-2.3313,54.9335-26.3354,6.3855-20.2026-2.219-43.337-12.7539-60.564-13.1504-21.5037-33.0222-39.1181-50.5098-57.0157-18.8353-19.2769-37.9066-39.0015-51.7466-62.306-72.4228-121.9483,95.7527-204.0751,183.9882-243.0275C901.5405,31.4481,1030.9292,3.7579,1160.5176,2.9386c31.0482-.1963,62.0804,1.2116,92.9938,4.0858,1.9215.1787,1.9093-2.8225,0-3h0Z" style="stroke-width:0px; fill: #dedddc;"/></g></svg>